<svg width="18" height="18" viewBox="0 0 18 18" fill="none"
    xmlns="http://www.w3.org/2000/svg">
    <path d="M17.9542 5.29184C17.9119 4.33353 17.7569 3.67821 17.5349 3.10746C17.3059 2.50147 16.9536 1.96242 16.4956 1.51145C16.0446 1.05344 15.4985 0.697592 14.9031 0.475631C14.3288 0.25367 13.677 0.0986494 12.7187 0.0563711C11.7534 0.0105696 11.4469 0 9.00176 0C6.55666 0 6.25015 0.0105696 5.29184 0.0528479C4.33353 0.0951262 3.67821 0.250147 3.10746 0.472108C2.50499 0.701116 1.96242 1.04991 1.51145 1.51145C1.05344 1.96242 0.697592 2.50851 0.475631 3.10393C0.25367 3.67821 0.0986494 4.33001 0.0563711 5.28831C0.0105696 6.25367 0 6.55666 0 9.00176C0 11.4469 0.0105696 11.7534 0.0528479 12.7117C0.0951263 13.67 0.250147 14.3253 0.472108 14.8961C0.701116 15.5021 1.05696 16.0411 1.51145 16.4921C1.96242 16.9501 2.50851 17.3059 3.10393 17.5279C3.67821 17.7499 4.33001 17.9049 5.28831 17.9472C6.24662 17.9894 6.55314 18 8.99824 18C11.4433 18 11.7499 17.9894 12.7082 17.9472C13.6665 17.9049 14.3218 17.7499 14.8925 17.5279C16.101 17.0593 17.0593 16.1045 17.5279 14.8925C17.7499 14.3183 17.9049 13.6665 17.9472 12.7082C17.9894 11.7463 18 11.4433 18 8.99824C18 6.55314 17.9965 6.25367 17.9542 5.29184ZM16.3335 12.6447C16.2948 13.5255 16.1468 13.9977 16.0235 14.3147C15.7205 15.1004 15.0969 15.7205 14.3147 16.0235C13.9977 16.1468 13.5185 16.2948 12.6447 16.3335C11.6935 16.3758 11.4116 16.3864 9.00881 16.3864C6.60599 16.3864 6.31709 16.3758 5.37287 16.3335C4.49207 16.2948 4.01996 16.1468 3.70288 16.0235C3.3118 15.879 2.95596 15.65 2.67058 15.3506C2.37111 15.0581 2.1421 14.7058 1.99765 14.3183C1.87434 14.0012 1.72637 13.522 1.68761 12.6483C1.64533 11.697 1.63476 11.4151 1.63476 9.01233C1.63476 6.60951 1.64533 6.32061 1.68761 5.37639C1.72637 4.4956 1.87434 4.02349 1.99765 3.7064C2.13858 3.3118 2.36759 2.95948 2.67058 2.67058C2.96301 2.37111 3.31533 2.1421 3.70288 1.99765C4.01996 1.87434 4.49912 1.72637 5.37287 1.68761C6.32413 1.64533 6.60599 1.63476 9.00881 1.63476C11.4152 1.63476 11.7005 1.64533 12.6447 1.68761C13.5255 1.72637 13.9977 1.87434 14.3147 1.99765C14.7058 2.1421 15.0617 2.37111 15.347 2.67058C15.6465 2.96301 15.8755 3.31533 16.02 3.7064C16.1433 4.02349 16.2913 4.50264 16.33 5.37639C16.3723 6.32766 16.3829 6.60951 16.3829 9.01233C16.3829 11.4151 16.3758 11.6935 16.3335 12.6447Z" fill="currentColor"/>
    <path d="M9.00181 4.37939C6.44749 4.37939 4.37585 6.45103 4.37585 9.00535C4.37585 11.5597 6.45102 13.6278 9.00181 13.6278C11.5561 13.6278 13.6278 11.5561 13.6278 9.00183C13.6278 6.44751 11.5561 4.37939 9.00181 4.37939ZM9.00181 12.0036C7.34591 12.0036 6.00005 10.6613 6.00005 9.00183C6.00005 7.3424 7.34238 6.00006 9.00181 6.00006C10.6577 6.00006 12.0036 7.3424 12.0036 9.00183C12.0036 10.6613 10.6612 12.0036 9.00181 12.0036Z" fill="currentColor"/>
    <path d="M14.8925 4.19628C14.8925 4.7917 14.4098 5.27438 13.8144 5.27438C13.219 5.27438 12.7363 4.7917 12.7363 4.19628C12.7363 3.60086 13.219 3.11818 13.8144 3.11818C14.4063 3.11466 14.8925 3.60086 14.8925 4.19628Z" fill="currentColor"/>
</svg>
