<svg xmlns="http://www.w3.org/2000/svg"
    xmlns:xlink="http://www.w3.org/1999/xlink">
    <symbol fill="none" viewBox="0 0 9 18" id="fb"
        xmlns="http://www.w3.org/2000/svg">
        <path d="M7.358 2.988H9V.127A21.343 21.343 0 006.606 0c-2.37 0-3.994 1.49-3.994 4.23v2.52H0v3.2h2.616V18h3.206V9.95h2.51l.397-3.2H5.822V4.546c-.004-.925.246-1.558 1.536-1.558z" fill="currentColor"/>
    </symbol>
    <symbol fill="none" viewBox="0 0 18 18" id="insta"
        xmlns="http://www.w3.org/2000/svg">
        <path d="M17.954 5.292c-.042-.958-.197-1.614-.42-2.185a4.425 4.425 0 00-1.038-1.596A4.4 4.4 0 0014.903.476C14.33.254 13.677.099 12.72.056 11.753.011 11.447 0 9.002 0 6.557 0 6.25.01 5.292.053c-.958.042-1.614.197-2.185.42A4.409 4.409 0 001.511 1.51 4.4 4.4 0 00.476 3.104C.254 3.678.099 4.33.056 5.288.011 6.254 0 6.557 0 9.002c0 2.445.01 2.751.053 3.71.042.958.197 1.613.42 2.184a4.472 4.472 0 001.038 1.596c.451.458.998.814 1.593 1.036.574.222 1.226.377 2.184.42.959.041 1.265.052 3.71.052 2.445 0 2.752-.01 3.71-.053.958-.042 1.614-.197 2.184-.42a4.611 4.611 0 002.636-2.635c.222-.574.377-1.226.42-2.184.041-.962.052-1.265.052-3.71 0-2.445-.003-2.744-.046-3.706zm-1.62 7.353c-.04.88-.187 1.353-.31 1.67a2.99 2.99 0 01-1.71 1.708c-.316.124-.796.272-1.67.31-.95.043-1.232.053-3.635.053-2.403 0-2.692-.01-3.636-.052-.88-.04-1.353-.187-1.67-.31a2.735 2.735 0 01-1.032-.673 2.82 2.82 0 01-.673-1.033c-.124-.317-.272-.796-.31-1.67-.043-.951-.053-1.233-.053-3.636 0-2.402.01-2.691.053-3.636.038-.88.186-1.353.31-1.67.14-.394.37-.747.673-1.035.292-.3.644-.529 1.032-.673.317-.124.796-.272 1.67-.31.951-.043 1.233-.053 3.636-.053 2.406 0 2.691.01 3.636.053.88.038 1.353.186 1.67.31.39.144.747.373 1.032.673.3.292.529.644.673 1.035.123.317.271.797.31 1.67.042.952.053 1.234.053 3.636 0 2.403-.007 2.681-.05 3.633z" fill="currentColor"/>
        <path d="M9.002 4.38a4.627 4.627 0 00-4.626 4.625 4.626 4.626 0 009.252-.003 4.624 4.624 0 00-4.626-4.623zm0 7.624a3.002 3.002 0 110-6.004 3.002 3.002 0 010 6.004zM14.893 4.196a1.078 1.078 0 11-2.157 0 1.078 1.078 0 012.156 0z" fill="currentColor"/>
    </symbol>
</svg>