<svg width="128" height="128" viewBox="0 0 133 133" fill="none" xmlns="http://www.w3.org/2000/svg"><circle cx="66.5" cy="66.5" r="66.5" fill="#fff"/><path d="M76.855 65.076c-.658 0-1.268.205-1.773.567-.277-1.485-1.554-2.608-3.089-2.608-.676 0-1.296.215-1.81.596-.344-1.397-1.583-2.441-3.05-2.441-.63 0-1.221.195-1.717.527v-7.832c0-1.778-1.41-3.223-3.145-3.223s-3.146 1.445-3.146 3.223v6.484c0 .4.315.733.715.733.4 0 .715-.323.715-.733v-6.484c0-.967.772-1.758 1.716-1.758s1.716.791 1.716 1.758v14.033c0 .4.314.732.714.732.4 0 .715-.322.715-.732v-3.516c0-.967.772-1.758 1.716-1.758s1.716.791 1.716 1.758v3.555c0 .4.314.733.715.733.39 0 .715-.323.715-.733v-1.709c0-.967.772-1.758 1.715-1.758.944 0 1.716.791 1.716 1.758v3.555c0 .4.315.732.715.732.4 0 .715-.322.715-.732v-1.514c0-.967.772-1.758 1.716-1.758.943 0 1.715.791 1.715 1.758v5.137c0 .4.315.732.715.732.4 0 .715-.322.715-.732v-5.137c0-1.767-1.41-3.213-3.145-3.213zM79.285 75.809a.723.723 0 00-.715.732v3.535c0 1.71-.42 3.418-1.2 4.932-1.736 3.32-4.967 5.39-8.637 5.527-3.679.137-7.044-1.68-9.007-4.873l-1.525-2.47a.7.7 0 00-.982-.225.738.738 0 00-.22 1.006l1.526 2.47C60.689 89.95 64.33 92 68.343 92c.143 0 .295 0 .438-.01 4.184-.156 7.864-2.51 9.846-6.299A12.201 12.201 0 0080 80.076v-3.535a.73.73 0 00-.715-.732zM53.816 76.072a2.667 2.667 0 01.372-3.261 2.53 2.53 0 012.02-.743c.754.069 1.43.479 1.86 1.104l1.2 1.758a.7.7 0 00.801.273.731.731 0 00.496-.693V63.475c0-.4-.315-.733-.715-.733-.4 0-.715.323-.715.733v8.73a3.952 3.952 0 00-2.793-1.582 3.945 3.945 0 00-3.155 1.152c-1.325 1.338-1.573 3.477-.581 5.078l2.745 4.454a.712.712 0 00.6.341.698.698 0 00.382-.117.738.738 0 00.219-1.006l-2.736-4.453z" fill="#009840"/><path d="M66.932 52.977c.39.068.753-.196.83-.596.056-.322.085-.664.085-.996 0-3.145-2.497-5.713-5.576-5.713-3.079 0-5.567 2.578-5.567 5.723 0 .41.048.82.124 1.22a.724.724 0 00.696.576.734.734 0 00.696-.889 4.139 4.139 0 01-.096-.907c0-2.344 1.86-4.248 4.147-4.248s4.146 1.904 4.146 4.248c0 .244-.019.498-.067.742-.057.39.2.771.582.84z" fill="#009840"/><path d="M54.779 55.477a.735.735 0 00.372-.957 8.113 8.113 0 01-.62-3.126c0-4.374 3.48-7.939 7.75-7.939s7.749 3.565 7.749 7.94c0 1.083-.21 2.138-.62 3.124-.152.372.01.801.372.958a.74.74 0 00.276.058.717.717 0 00.658-.44 9.593 9.593 0 00.734-3.7c0-5.176-4.108-9.395-9.17-9.395-5.061 0-9.17 4.219-9.17 9.395 0 1.279.249 2.529.735 3.7a.712.712 0 00.934.382z" fill="#009840"/></svg>