<svg xmlns="http://www.w3.org/2000/svg"
    xmlns:xlink="http://www.w3.org/1999/xlink">
    <symbol viewBox="0 0 253 60" fill="none" id="ru"
        xmlns="http://www.w3.org/2000/svg">
        <path d="M251.573 19.8455L251.288 19.5786L231.793 1.30127C229.942 -0.433757 226.956 -0.433757 225.106 1.30127C223.255 3.0363 223.255 5.83542 225.106 7.57405L236.775 18.5109L241.473 22.9152L236.775 27.3195L225.248 38.1228C224.398 38.9236 223.828 40.1247 223.828 41.3259C223.828 42.5271 224.255 43.5912 225.248 44.392C227.099 46.127 230.088 46.127 231.939 44.392L251.434 25.9848C251.434 25.9848 251.576 25.9848 251.576 25.8513L251.719 25.7179C252.569 24.9171 253 23.8494 253 22.6482C252.854 21.714 252.427 20.6463 251.573 19.8455Z" fill="currentColor"/>
        <path d="M226.032 23.6337C226.536 20.7253 224.429 17.9849 221.327 17.5129C218.225 17.0409 215.302 19.016 214.798 21.9244C214.295 24.8328 216.401 27.5731 219.504 28.0451C222.606 28.5172 225.529 26.5421 226.032 23.6337Z" fill="currentColor"/>
        <path d="M37.4246 13.8432C34.7198 13.8432 32.7268 14.6404 31.3071 16.3791V14.2436H26.0399V38.6567H31.3071V29.5847C32.7268 31.1827 34.7198 32.1205 37.4246 32.1205C39.9832 32.1205 41.9762 31.1863 43.6845 29.4513C45.3928 27.7162 46.2431 25.451 46.2431 22.9152C46.2431 20.2495 45.3928 18.1141 43.6845 16.3791C41.9762 14.5106 39.8408 13.7098 37.4246 13.8432ZM39.5561 26.3852C38.702 27.3195 37.4208 27.7162 35.9972 27.7162C33.8618 27.7162 32.1535 26.6485 31.3032 25.1804V20.6463C32.1535 19.1782 33.8618 17.977 35.9972 18.1105C37.4208 18.1105 38.5596 18.5109 39.5561 19.4451C40.5526 20.3794 40.9797 21.5769 40.9797 22.9116C40.9797 24.2498 40.5526 25.4474 39.5561 26.3852Z" fill="currentColor"/>
        <path d="M66.3078 26.5151V20.6463C66.3078 18.5145 65.596 16.7794 63.8877 15.5783C62.3218 14.2472 60.1903 13.7134 57.4855 13.7134C54.6422 13.7134 52.3645 14.1138 50.5138 15.048V19.1818C52.3645 18.2475 54.2113 17.7137 56.2043 17.7137C59.4746 17.7137 61.1829 18.7814 61.1829 21.0503V21.5841C59.617 20.9168 57.9087 20.5164 55.7772 20.5164C53.7842 20.5164 52.0797 21.0503 50.6562 21.9845C49.2326 22.9188 48.5208 24.3869 48.5208 26.2517C48.5208 29.8553 51.3641 32.1205 55.3501 32.1205C58.0549 32.1205 60.0441 31.3198 61.7524 29.7218C62.4641 31.1899 63.8877 31.9907 66.0231 31.9907C67.3005 31.9907 68.1584 31.7237 68.8664 31.1899V27.5864C68.5817 27.7198 68.1546 27.8533 67.5852 27.8533C66.7387 27.8497 66.3078 27.4529 66.3078 26.5151ZM61.1868 26.3852C60.1903 27.5864 58.7667 28.1202 56.9199 28.1202C55.0693 28.1202 53.6457 27.4529 53.6457 25.8513C53.6457 24.3832 55.0693 23.5825 57.3431 23.5825C58.7667 23.5825 60.0479 23.9829 61.1868 24.6466V26.3852Z" fill="currentColor"/>
        <path d="M81.5324 31.8536C83.6677 31.8536 85.6607 31.4532 87.369 30.519V26.3816C85.9454 27.1824 84.2372 27.5828 82.3865 27.5828C80.8206 27.5828 79.397 27.1824 78.2581 26.2481C77.1193 25.4474 76.5537 24.2462 76.5537 22.7817C76.5537 21.3136 77.1193 20.2459 78.2581 19.3116C79.397 18.3774 80.6782 17.977 82.3865 17.977C83.8101 17.977 85.5145 18.3774 87.0843 19.0447V14.911C85.376 14.1102 83.5254 13.7098 81.5324 13.7098C78.6891 13.7098 76.2651 14.5106 74.276 16.2456C72.2868 17.977 71.2865 20.2459 71.2865 22.9152C71.2865 25.5844 72.283 27.8497 74.276 29.5847C76.269 31.1863 78.5467 32.1205 81.5324 31.8536Z" fill="currentColor"/>
        <path d="M116.679 29.4513C118.53 31.1863 121.088 32.1205 124.078 32.1205C127.067 32.1205 129.484 31.1863 131.477 29.4513C133.327 27.7162 134.32 25.5844 134.32 22.9152C134.32 20.3793 133.466 18.1141 131.477 16.379C129.626 14.644 127.064 13.7134 124.078 13.7134C121.088 13.7134 118.672 14.644 116.679 16.379C114.829 18.1141 113.836 20.2495 113.836 22.9152C113.836 25.4474 114.686 27.7162 116.679 29.4513ZM120.381 19.4451C121.377 18.5109 122.658 18.1105 124.082 18.1105C125.648 18.1105 126.783 18.5109 127.779 19.4451C128.776 20.3793 129.203 21.5805 129.203 22.9115C129.203 24.2462 128.776 25.4474 127.779 26.3816C126.783 27.3158 125.505 27.7126 124.082 27.7126C122.658 27.7126 121.377 27.3122 120.381 26.3816C119.384 25.4474 118.957 24.3796 118.957 22.9115C118.957 21.4434 119.384 20.3793 120.381 19.4451Z" fill="currentColor"/>
        <path d="M156.52 14.2436H140.868L140.726 17.5802C140.584 22.1144 139.872 25.451 138.448 27.4529H136.028V35.991V36.1245H141.149V31.7202H154.527V36.1245H159.506V27.5864H156.516V14.2436H156.52ZM151.257 27.4493H143.716C144.851 24.9135 145.424 21.8475 145.424 18.2439H151.257V27.4493Z" fill="currentColor"/>
        <path d="M179.432 26.5151V20.6463C179.432 18.5145 178.72 16.7794 177.012 15.5783C175.446 14.2472 173.314 13.7134 170.61 13.7134C167.766 13.7134 165.489 14.1138 163.638 15.048V19.1818C165.489 18.2475 167.335 17.7137 169.328 17.7137C172.599 17.7137 174.307 18.7814 174.307 21.0503V21.5841C172.741 20.9168 171.033 20.5164 168.901 20.5164C166.908 20.5164 165.204 21.0503 163.78 21.9845C162.357 22.9188 161.645 24.3869 161.645 26.2517C161.645 29.8553 164.488 32.1205 168.474 32.1205C171.179 32.1205 173.168 31.3198 174.877 29.7218C175.588 31.1899 177.012 31.9907 179.147 31.9907C180.425 31.9907 181.283 31.7237 181.991 31.1899V27.5864C181.706 27.7198 181.279 27.8533 180.709 27.8533C179.859 27.8497 179.432 27.4529 179.432 26.5151ZM174.307 26.3852C173.311 27.5864 171.887 28.1202 170.04 28.1202C168.19 28.1202 166.766 27.4529 166.766 25.8513C166.766 24.3832 168.19 23.5825 170.463 23.5825C171.887 23.5825 173.168 23.9829 174.307 24.6466V26.3852Z" fill="currentColor"/>
        <path d="M196.934 13.8432C194.229 13.8432 192.236 14.6404 190.817 16.3791V14.2436H185.553V38.6567H190.817V29.5847C192.236 31.1827 194.229 32.1205 196.934 32.1205C199.497 32.1205 201.486 31.1863 203.194 29.4513C204.902 27.7162 205.753 25.451 205.753 22.9152C205.753 20.2495 204.902 18.1141 203.194 16.3791C201.628 14.5106 199.497 13.7098 196.934 13.8432ZM199.07 26.3852C198.212 27.3195 196.934 27.7162 195.511 27.7162C193.375 27.7162 191.667 26.6485 190.813 25.1804V20.6463C191.667 19.1782 193.375 17.977 195.511 18.1105C196.93 18.1105 198.069 18.5109 199.07 19.4451C200.062 20.3794 200.489 21.5769 200.489 22.9116C200.489 24.2498 200.062 25.4474 199.07 26.3852Z" fill="currentColor"/>
        <path d="M21.6306 7.04021H15.086L5.40574 16.646V7.04021H0V31.4532H5.40574V20.1124L16.6481 31.4532H23.4813L10.5306 18.2475L21.6306 7.04021Z" fill="currentColor"/>
        <path d="M97.0455 24.7836H104.729V31.5867H109.992V14.1102H104.729V20.6463H97.0455V14.1102H91.7783V31.5867H97.0455V24.7836Z" fill="currentColor"/>
        <path d="M87.9384 47.3282V45.4597H87.369V41.4594H83.9524L83.6677 43.7283C83.383 45.0629 83.1021 45.3298 82.6712 45.4633V47.3318H83.383V46.1306H87.2266V47.3318H87.9384V47.3282ZM86.6572 45.3262H83.6677C83.9524 45.0593 84.2371 44.6589 84.3795 43.7247L84.6642 41.8562H86.6572V45.3262Z" fill="currentColor"/>
        <path d="M92.7747 41.3223L91.0665 45.1928L89.362 41.3223H88.5079L90.6432 46.1234L90.3585 46.7907C90.2162 47.1911 89.9315 47.3246 89.6467 47.3246C89.5044 47.3246 89.3659 47.1911 89.2197 47.1911L89.0773 47.725C89.2197 47.8584 89.5044 47.8584 89.6467 47.8584C90.2162 47.8584 90.7894 47.5915 91.0703 46.9242L93.6327 41.3223H92.7747Z" fill="currentColor"/>
        <path d="M133.897 43.1908H132.046V41.4558H131.192V46.127H133.897C134.893 46.127 135.463 45.4597 135.463 44.6589C135.467 43.8581 134.893 43.1908 133.897 43.1908ZM133.897 45.4597H132.046V43.8617H133.897C134.466 43.8617 134.751 44.2621 134.751 44.6625C134.751 45.1928 134.466 45.4597 133.897 45.4597Z" fill="currentColor"/>
        <path d="M137.171 41.4558H136.459V46.127H137.171V41.4558Z" fill="currentColor"/>
        <path d="M139.73 45.0593V41.4558H139.022V46.127H139.591L142.296 42.5235V46.127H143.004V41.4558H142.296L139.73 45.0593Z" fill="currentColor"/>
        <path d="M141.157 40.3917C140.588 40.3917 140.018 40.1248 139.733 39.7244L139.306 39.9913C139.733 40.5251 140.445 40.7921 141.157 40.7921C141.869 40.7921 142.581 40.5251 143.008 39.9913L142.581 39.7244C142.296 40.1248 141.726 40.3917 141.157 40.3917Z" fill="currentColor"/>
        <path d="M82.248 53.3304C81.3939 53.3304 80.8244 53.5937 80.255 54.1312L80.6821 54.6651C81.1091 54.2647 81.6786 53.9977 82.248 53.9977C82.9598 53.9977 83.5292 54.2611 83.5292 54.9284V55.7328C83.1021 55.3324 82.5327 55.0655 81.8209 55.0655C80.9706 55.0655 80.1165 55.5957 80.1165 56.667C80.1165 57.7347 80.9706 58.265 81.8209 58.265C82.5327 58.265 83.1021 58.0017 83.5292 57.5977V58.1351H84.241V54.932C84.2372 53.7308 83.2407 53.3304 82.248 53.3304ZM83.5254 57.0638C83.2407 57.4642 82.6712 57.7311 82.1018 57.7311C81.39 57.7311 80.8206 57.1973 80.8206 56.6634C80.8206 55.9961 81.39 55.5921 82.1018 55.5921C82.6712 55.5921 83.2407 55.7292 83.5254 56.1296V57.0638Z" fill="currentColor"/>
        <path d="M87.5114 53.4639C86.5149 53.4639 86.0878 53.8643 85.6607 54.2611L86.0878 54.6615C86.3725 54.2611 86.7996 53.9941 87.369 53.9941C88.3655 53.9941 88.935 54.5244 89.0735 55.4622H86.5149V56.1296H89.0735C88.9311 57.0638 88.3617 57.7311 87.369 57.7311C86.7996 57.7311 86.3725 57.4642 86.0878 57.0638L85.6607 57.4642C86.0878 57.8646 86.6572 58.265 87.5114 58.265C89.0773 58.265 90.0738 57.1973 90.0738 55.8626C90.0738 54.5316 89.0735 53.4639 87.5114 53.4639Z" fill="currentColor"/>
        <path d="M94.056 53.334C93.3442 53.334 92.7748 53.5974 92.3515 54.1312V53.4639H91.6397V60H92.3515V57.4642C92.7786 57.9981 93.4904 58.2614 94.056 58.1315C95.4795 58.1315 96.3337 57.1973 96.3337 55.7328C96.3337 54.2647 95.3372 53.334 94.056 53.334ZM93.9136 57.5977C93.3442 57.5977 92.7748 57.1973 92.49 56.8005V54.6651C92.6324 54.2647 93.3442 53.8643 93.9136 53.8643C94.9101 53.8643 95.4795 54.6651 95.4795 55.7328C95.4795 56.8005 94.9101 57.5977 93.9136 57.5977Z" fill="currentColor"/>
        <path d="M100.031 53.334C98.6076 53.334 97.6111 54.3982 97.6111 55.7328C97.6111 57.0674 98.6076 58.265 100.031 58.1315C101.455 58.1315 102.451 57.0674 102.451 55.7328C102.451 54.3982 101.601 53.334 100.031 53.334ZM100.031 57.5977C98.8923 57.5977 98.3228 56.6634 98.3228 55.7328C98.3228 54.6651 98.8923 53.8643 100.031 53.8643C101.17 53.8643 101.739 54.7985 101.739 55.7328C101.739 56.8005 101.17 57.5977 100.031 57.5977Z" fill="currentColor"/>
        <path d="M65.1689 44.9258L63.6069 41.4558H62.6104V46.127H63.3221V42.3936L65.0304 46.127H65.3151L66.8772 42.3936V46.127H67.7314V41.4558H66.7387L65.1689 44.9258Z" fill="currentColor"/>
        <path d="M71.5712 41.3259C70.1476 41.3259 69.1511 42.39 69.1511 43.7247C69.1511 45.1928 70.29 46.127 71.8559 46.2605C72.7101 46.2605 73.4218 45.9972 73.8489 45.5932L73.4218 45.0593C72.9948 45.3262 72.4253 45.5932 71.8559 45.5932C70.7171 45.5932 70.0053 44.9258 70.0053 43.9952H73.9874V43.8617C73.9913 42.39 73.141 41.3259 71.5712 41.3259ZM73.141 43.4577H69.8668C70.0091 42.6606 70.4362 41.8598 71.575 41.8598C72.7139 41.8598 73.2833 42.7904 73.141 43.4577Z" fill="currentColor"/>
        <path d="M81.9594 46.127L79.6856 43.5912L81.9594 41.4558H80.9668L78.8314 43.4613V41.4558H78.1196V43.5912L75.9843 41.4558H74.9878L77.2655 43.5912L74.9878 46.127H76.1266L77.9773 43.9952L78.262 44.2585V45.9935H78.9738V44.2585L79.2585 43.9952L81.1053 46.127H81.9594Z" fill="currentColor"/>
        <path d="M98.8923 46.127V41.4558H98.1843V43.4613H95.6219V41.4558H94.9101V46.127H95.6219V43.9952H98.1843V46.127H98.8923Z" fill="currentColor"/>
        <path d="M104.725 46.127V42.9239C104.725 41.7227 103.729 41.3259 102.736 41.3259C101.882 41.3259 101.312 41.5892 100.747 42.1267L101.174 42.6606C101.601 42.2602 102.17 41.9932 102.74 41.9932C103.452 41.9932 104.021 42.2566 104.021 42.9239V43.7283C103.594 43.3279 103.024 43.061 102.317 43.061C101.462 43.061 100.608 43.5912 100.608 44.6625C100.608 45.7302 101.462 46.2605 102.317 46.2605C103.028 46.2605 103.598 45.9972 104.021 45.5932V46.1306H104.725V46.127ZM102.594 45.7266C101.882 45.7266 101.312 45.1928 101.312 44.6589C101.312 43.9916 101.882 43.5876 102.594 43.5876C103.163 43.5876 103.732 43.7247 104.017 44.1251V45.0593C103.732 45.4597 103.163 45.7266 102.594 45.7266Z" fill="currentColor"/>
        <path d="M111.42 43.5912C111.42 42.1231 110.423 41.1925 109.142 41.1925C108.43 41.1925 107.861 41.4594 107.434 41.9932V41.3259H106.722V47.862H107.434V45.3262C107.861 45.8601 108.43 46.127 109.142 46.127C110.566 46.127 111.42 45.0593 111.42 43.5912ZM108.996 45.5895C108.426 45.5895 107.861 45.1892 107.572 44.7924V42.6606C107.715 42.2566 108.426 41.8562 108.996 41.8562C109.992 41.8562 110.562 42.6606 110.562 43.7247C110.566 44.7924 109.996 45.5895 108.996 45.5895Z" fill="currentColor"/>
        <path d="M117.391 43.7247C117.391 42.39 116.541 41.3259 114.975 41.3259C113.551 41.3259 112.555 42.39 112.555 43.7247C112.555 45.0593 113.551 46.1234 114.975 46.2569C116.395 46.2569 117.391 45.0593 117.391 43.7247ZM115.117 45.5932C113.978 45.5932 113.409 44.6589 113.409 43.7283C113.409 42.6606 113.978 41.8598 115.117 41.8598C116.256 41.8598 116.822 42.794 116.822 43.7283C116.822 44.6625 116.11 45.5932 115.117 45.5932Z" fill="currentColor"/>
        <path d="M123.797 47.3282V45.4597H123.228V41.4594H119.811L119.526 43.7283C119.242 45.0629 118.957 45.3298 118.53 45.4633V47.3318H119.242V46.1306H123.085V47.3318H123.797V47.3282ZM122.512 45.3262H119.523C119.807 45.0593 120.096 44.6589 120.234 43.7247L120.519 41.8562H122.508V45.3262H122.512Z" fill="currentColor"/>
        <path d="M128.633 43.4613H126.071V41.4558H125.359V46.127H126.071V43.9952H128.633V46.127H129.345V41.4558H128.633V43.4613Z" fill="currentColor"/>
        <path d="M104.302 58.1351H105.014V54.1312H107.572V58.1351H108.426V53.4639H104.302V58.1351Z" fill="currentColor"/>
        <path d="M112.27 53.334C110.846 53.334 109.85 54.3982 109.85 55.7328C109.85 57.0674 110.846 58.265 112.27 58.1315C113.694 58.1315 114.69 57.0674 114.69 55.7328C114.69 54.3982 113.836 53.334 112.27 53.334ZM112.27 57.5977C111.131 57.5977 110.562 56.6634 110.562 55.7328C110.562 54.6651 111.131 53.8643 112.27 53.8643C113.409 53.8643 113.974 54.7985 113.974 55.7328C113.974 56.8005 113.409 57.5977 112.27 57.5977Z" fill="currentColor"/>
        <path d="M118.957 53.334C118.245 53.334 117.676 53.5974 117.253 54.1312V53.4639H116.541V60H117.253V57.4642C117.537 57.9981 118.249 58.2614 118.957 58.1315C120.381 58.1315 121.235 57.1973 121.235 55.7328C121.235 54.2647 120.238 53.334 118.957 53.334ZM118.676 57.5977C118.107 57.5977 117.537 57.1973 117.253 56.8005V54.6651C117.395 54.2647 118.107 53.8643 118.676 53.8643C119.673 53.8643 120.242 54.6651 120.242 55.7328C120.238 56.8005 119.669 57.5977 118.676 57.5977Z" fill="currentColor"/>
        <path d="M122.231 54.1312H123.655V58.1351H124.505V54.1312H125.929V53.4639H122.231V54.1312Z" fill="currentColor"/>
    </symbol>
    <symbol viewBox="0 0 260 66" fill="none" id="en">
        <path d="M5.3339 35.1889H0V9.26025H5.3339V19.4836L14.8905 9.26025H21.4097L10.4085 21.1504L23.2988 35.1889H16.4832L5.3339 23.2247V35.1889ZM32.5609 35.1889H27.3381V16.7055H32.5609V19.8169C33.1295 18.8298 33.9925 17.989 35.1538 17.2981C36.3158 16.5954 37.648 16.2239 39.006 16.224C39.3023 16.224 39.5005 16.2369 39.5987 16.261V21.3727C39.1042 21.2486 38.5615 21.1874 37.9689 21.1874C36.7595 21.1874 35.6483 21.5079 34.6352 22.1505C33.648 22.7672 32.9554 23.521 32.5609 24.41V35.1889V35.1889ZM62.077 31.1515C62.5215 31.1515 62.8808 31.0774 63.1512 30.9292V34.7445C62.4844 35.263 61.5473 35.5223 60.3361 35.5223C58.2377 35.5223 56.8413 34.7315 56.1504 33.1517C54.5206 34.8315 52.3963 35.6705 49.7794 35.6705C47.7551 35.6705 46.1123 35.1019 44.8529 33.9666C43.5935 32.8313 42.9638 31.3367 42.9638 29.4846C42.9638 27.5085 43.6806 26.0028 45.1122 24.9656C46.5457 23.9285 48.2607 23.4099 50.2609 23.4099C52.3593 23.4099 54.1373 23.7933 55.5948 24.5582V24.0026C55.5948 21.6819 53.965 20.5207 50.7054 20.5207C48.7052 20.5207 46.8402 21.0393 45.1122 22.0764V17.7056C46.9902 16.7185 49.2738 16.224 51.9648 16.224C54.6318 16.224 56.7561 16.8666 58.3359 18.1501C59.9657 19.4336 60.7806 21.2115 60.7806 23.484V29.7439C60.7806 30.6829 61.2139 31.1515 62.077 31.1515ZM55.5948 29.7439V27.8919C54.5077 27.1751 53.2242 26.8177 51.7426 26.8177C50.6313 26.8177 49.7423 27.027 49.0756 27.4474C48.4348 27.8678 48.1125 28.4604 48.1125 29.2253C48.1125 30.0162 48.4089 30.6199 49.0015 31.0404C49.5942 31.4348 50.3961 31.633 51.4092 31.633C53.2372 31.633 54.6318 31.0033 55.5948 29.7439ZM75.0617 35.6705C71.778 35.6705 69.1852 35.0908 67.2831 33.9295V29.2994C68.1721 29.8921 69.2963 30.3977 70.6538 30.8181C72.0373 31.2126 73.4319 31.4108 74.8395 31.4108C76.9638 31.4108 78.025 30.8922 78.025 29.855C78.025 29.3605 77.7176 28.979 77.099 28.7068C76.7902 28.5629 76.4675 28.4512 76.1359 28.3734L74.7654 28.04C74.5691 27.99 74.2968 27.9289 73.9505 27.8548C73.7257 27.7886 73.5033 27.7145 73.2838 27.6326C71.0872 27.0399 69.5315 26.3361 68.6166 25.5212C67.7276 24.6823 67.2831 23.471 67.2831 21.8912C67.2831 20.1373 67.9998 18.7557 69.4315 17.7426C70.889 16.7296 72.8893 16.224 75.4321 16.224C78.2472 16.224 80.5567 16.7925 82.3588 17.9278V22.3728C80.1623 21.0893 77.9268 20.4466 75.6544 20.4466C73.6801 20.4466 72.6911 20.9411 72.6911 21.9283C72.6911 22.1264 72.7411 22.3116 72.8393 22.4839C72.9633 22.632 73.0745 22.7432 73.1726 22.8173L73.7282 23.1506C73.8764 23.2006 74.1487 23.2858 74.5431 23.4099C74.9395 23.5081 75.1988 23.5821 75.321 23.6322L77.2842 24.0396C79.3344 24.5082 80.8531 25.212 81.8402 26.1509C82.8292 27.064 83.3219 28.3123 83.3219 29.8921C83.3219 31.62 82.5699 33.0165 81.0624 34.0777C79.5566 35.1389 77.5564 35.6705 75.0617 35.6705V35.6705ZM93.9063 23.4099V35.1889H88.6835V16.7055H93.9063V18.9279C95.5602 17.1259 97.6215 16.224 100.092 16.224C102.215 16.224 103.87 16.9037 105.056 18.2612C106.241 19.5947 106.834 21.4597 106.834 23.8544V35.1889H101.611V24.9286C101.611 23.5951 101.277 22.608 100.611 21.9653C99.9681 21.3226 99.1291 21.0022 98.092 21.0022C97.3011 21.0022 96.5103 21.2375 95.7213 21.706C94.9883 22.12 94.3657 22.7044 93.9063 23.4099V23.4099ZM116.988 25.9287C116.988 27.4103 117.47 28.6457 118.433 29.6328C119.396 30.6199 120.618 31.1144 122.1 31.1144C123.582 31.1144 124.804 30.6199 125.767 29.6328C126.73 28.6197 127.212 27.3863 127.212 25.9287C127.212 24.4471 126.73 23.2247 125.767 22.2616C124.804 21.2745 123.582 20.78 122.1 20.78C120.618 20.78 119.396 21.2745 118.433 22.2616C117.47 23.2247 116.988 24.4471 116.988 25.9287ZM111.84 25.9287C111.84 23.1877 112.803 20.8911 114.729 19.0391C116.631 17.1629 119.087 16.224 122.1 16.224C125.113 16.224 127.569 17.1629 129.471 19.0391C131.397 20.9152 132.36 23.2117 132.36 25.9287C132.36 28.6938 131.397 31.0163 129.471 32.8924C127.545 34.7445 125.087 35.6705 122.1 35.6705C119.113 35.6705 116.655 34.7445 114.729 32.8924C112.803 31.0163 111.84 28.6938 111.84 25.9287V25.9287ZM145.177 35.6705C142.682 35.6705 140.596 34.7445 138.917 32.8924C137.287 31.0163 136.472 28.6938 136.472 25.9287C136.472 23.1877 137.287 20.8911 138.917 19.0391C140.571 17.1629 142.658 16.224 145.177 16.224C147.769 16.224 149.794 17.137 151.251 18.965V9.26025H156.474V35.1889H151.251V32.9294C149.868 34.7574 147.844 35.6705 145.177 35.6705V35.6705ZM146.658 31.1144C147.645 31.1144 148.547 30.8551 149.362 30.3366C150.177 29.818 150.807 29.1513 151.251 28.3364V23.521C150.807 22.7061 150.177 22.0524 149.362 21.5579C148.547 21.0393 147.645 20.78 146.658 20.78C145.177 20.78 143.978 21.2745 143.065 22.2616C142.126 23.2747 141.658 24.4971 141.658 25.9287C141.658 27.3863 142.126 28.6197 143.065 29.6328C143.978 30.6199 145.177 31.1144 146.658 31.1144ZM180.643 31.1515C181.088 31.1515 181.447 31.0774 181.718 30.9292V34.7445C181.051 35.263 180.114 35.5223 178.902 35.5223C176.804 35.5223 175.409 34.7315 174.717 33.1517C173.087 34.8315 170.965 35.6705 168.346 35.6705C166.321 35.6705 164.679 35.1019 163.419 33.9666C162.16 32.8313 161.53 31.3367 161.53 29.4846C161.53 27.5085 162.247 26.0028 163.679 24.9656C165.112 23.9285 166.827 23.4099 168.827 23.4099C170.928 23.4099 172.705 23.7933 174.161 24.5582V24.0026C174.161 21.6819 172.531 20.5207 169.272 20.5207C167.272 20.5207 165.408 21.0393 163.679 22.0764V17.7056C165.557 16.7185 167.84 16.224 170.531 16.224C173.198 16.224 175.322 16.8666 176.902 18.1501C178.532 19.4336 179.347 21.2115 179.347 23.484V29.7439C179.347 30.6829 179.78 31.1515 180.643 31.1515V31.1515ZM174.161 29.7439V27.8919C173.076 27.1751 171.791 26.8177 170.309 26.8177C169.198 26.8177 168.309 27.027 167.642 27.4474C167.001 27.8678 166.679 28.4604 166.679 29.2253C166.679 30.0162 166.975 30.6199 167.568 31.0404C168.161 31.4348 168.964 31.633 169.976 31.633C171.804 31.633 173.198 31.0033 174.161 29.7439V29.7439ZM192.039 35.1889H186.816V16.7055H192.039V19.8169C192.608 18.8298 193.471 17.989 194.632 17.2981C195.794 16.5954 197.126 16.2239 198.484 16.224C198.78 16.224 198.979 16.2369 199.077 16.261V21.3727C198.582 21.2486 198.04 21.1874 197.447 21.1874C196.238 21.1874 195.126 21.5079 194.113 22.1505C193.126 22.7672 192.434 23.521 192.039 24.41V35.1889ZM79.1936 63.479C78.8232 63.1086 78.638 62.7382 78.638 62.1826C78.638 61.627 78.8232 61.0713 79.3788 60.8861C79.7493 60.5157 80.3049 60.3305 81.0457 60.3305C81.7865 60.3305 82.5273 60.5157 83.0829 60.8861V60.3305C83.0829 59.4045 82.5273 58.8489 81.2309 58.8489C80.4901 58.8489 79.9345 59.0341 79.3788 59.4045V58.6637C79.9345 58.2933 80.6753 58.1081 81.4161 58.1081C82.8977 58.1081 84.009 58.8489 84.009 60.1453V62.553C84.009 62.9234 84.1942 63.2938 84.5646 63.2938H84.935V64.0346C84.7498 64.0346 84.5646 64.2198 84.3794 64.2198C83.8238 64.2198 83.4534 63.8494 83.2681 63.2938C82.7125 64.0346 81.9717 64.2198 81.0457 64.2198C80.1197 63.8494 79.564 63.6642 79.1936 63.479V63.479ZM82.8977 62.1826V61.4417C82.3421 61.0713 81.7865 60.8861 81.0457 60.8861C79.9345 60.8861 79.3788 61.2565 79.3788 61.9974C79.3788 62.7382 80.1197 63.1086 80.8605 63.1086C81.6013 63.1086 82.5273 62.7382 82.8977 62.1826V62.1826ZM86.4166 55.7004C86.6018 55.5152 86.9722 55.5152 87.3427 55.7004C87.5279 55.8856 87.5279 56.256 87.3427 56.6264C87.1575 56.8116 86.787 56.8116 86.4166 56.6264C86.2314 56.256 86.2314 55.8856 86.4166 55.7004ZM86.4166 63.6642V57.9229H87.3427V63.6642H86.4166ZM89.7503 63.6642V57.9229H90.6763V59.0341C91.0468 58.2933 91.9728 57.7376 92.8988 57.7376V58.6637C92.7136 58.6637 92.3432 58.6637 92.158 58.8489C91.4172 59.0341 90.8616 59.5897 90.6763 60.1453V63.6642H89.7503V63.6642ZM95.3065 66.0719H94.3804V58.1081H95.3065V59.0341C95.8621 58.2933 96.6029 57.9229 97.5289 57.9229C98.2698 57.9229 99.0106 58.2933 99.5662 58.8489C100.122 59.4045 100.307 60.1453 100.307 60.8861C100.307 61.627 100.122 62.3678 99.5662 62.9234C99.0106 63.479 98.2698 63.8494 97.5289 63.8494C96.6029 63.8494 95.8621 63.479 95.3065 62.7382V66.0719V66.0719ZM95.3065 61.8122C95.6769 62.553 96.4177 63.1086 97.3437 63.1086C97.8993 63.1086 98.455 62.9234 98.8254 62.553C99.1958 62.1826 99.381 61.627 99.381 60.8861C99.381 60.3305 99.1958 59.7749 98.8254 59.4045C98.455 59.0341 97.8993 58.8489 97.3437 58.8489C96.4177 58.8489 95.6769 59.4045 95.3065 60.1453V61.8122V61.8122ZM104.937 57.9229C105.863 57.9229 106.604 58.2933 107.16 58.8489C107.715 59.4045 108.086 60.1453 108.086 60.8861C108.086 61.627 107.715 62.3678 107.16 62.9234C106.604 63.479 105.863 63.8494 104.937 63.8494C104.011 63.8494 103.27 63.479 102.715 62.9234C102.159 62.3678 101.789 61.627 101.789 60.8861C101.789 60.1453 102.159 59.4045 102.715 58.8489C103.27 58.2933 104.011 57.9229 104.937 57.9229ZM106.419 59.4045C106.048 59.0341 105.493 58.8489 104.937 58.8489C104.382 58.8489 103.826 59.0341 103.455 59.4045C103.085 59.7749 102.9 60.3305 102.9 61.0713C102.9 61.6269 103.085 62.1826 103.455 62.553C103.826 62.9234 104.382 63.1086 104.937 63.1086C105.493 63.1086 106.048 62.9234 106.419 62.553C106.789 62.1826 106.974 61.6269 106.974 61.0713C106.974 60.3305 106.789 59.7749 106.419 59.4045ZM109.938 63.6642V57.9229H110.678V59.0341C111.049 58.2933 111.975 57.7376 112.901 57.7376V58.6637C112.716 58.6637 112.345 58.6637 112.16 58.8489C111.419 59.0341 110.864 59.5897 110.678 60.1453V63.6642H109.938V63.6642ZM115.494 62.1826V58.8489H114.197V58.1081H115.494V56.4412H116.42V58.1081H118.457V58.8489H116.42V61.8122C116.42 62.1826 116.42 62.553 116.605 62.7382C116.79 62.9234 116.975 62.9234 117.346 62.9234C117.716 62.9234 118.087 62.9234 118.272 62.7382V63.479C118.087 63.6642 117.716 63.6642 117.161 63.6642C116.049 63.8494 115.494 63.2938 115.494 62.1826V62.1826ZM62.1085 44.6344C62.2937 44.4492 62.6641 44.4492 63.0345 44.6344C63.2197 44.8196 63.2197 45.19 63.0345 45.5604C62.8493 45.7456 62.4789 45.7456 62.1085 45.5604C61.9233 45.19 61.9233 44.8196 62.1085 44.6344ZM62.1085 52.5982V46.8569H63.0345V52.5982H62.1085ZM66.3682 52.5982H65.4422V46.8569H66.3682V47.7829C66.9238 47.0421 67.6646 46.8569 68.5907 46.8569C70.0723 46.8569 70.8131 47.7829 70.8131 49.2645V52.7834H69.8871V49.4497C69.8871 47.9681 68.9611 47.7829 68.2202 47.7829C67.8498 47.7829 67.4794 47.9681 67.109 48.1533C66.7386 48.3385 66.5534 48.7089 66.3682 48.8941V52.5982V52.5982ZM73.5912 50.9314V47.5977H72.2948V46.8569H73.5912V45.19H74.5172V46.8569H76.5545V47.5977H74.5172V50.561C74.5172 50.9314 74.5172 51.3018 74.7024 51.487C74.8876 51.6722 75.0728 51.6722 75.4432 51.6722C75.8137 51.6722 76.1841 51.6722 76.3693 51.487V52.2278C76.1841 52.413 75.8136 52.413 75.258 52.413C74.1468 52.7834 73.5912 52.0426 73.5912 50.9314ZM78.5917 51.8574C78.0361 51.3018 77.6657 50.561 77.6657 49.8201C77.6657 48.8941 77.8509 48.3385 78.4065 47.7829C78.9621 47.2273 79.7029 46.8569 80.4438 46.8569C82.2958 46.8569 83.0366 48.5237 83.0366 49.8201V50.0053H78.5917C78.7769 51.3018 79.703 52.0426 80.9994 52.0426C81.7402 52.0426 82.2958 51.8574 82.8514 51.487V52.2278C82.2958 52.5982 81.7402 52.7834 80.8142 52.7834C80.0734 52.7834 79.3325 52.413 78.5917 51.8574V51.8574ZM82.481 49.2645C82.481 48.8941 82.2958 48.5237 81.9254 48.1533C81.555 47.7829 81.1846 47.5977 80.629 47.5977C80.0734 47.5977 79.5177 47.7829 79.3325 48.1533C78.9621 48.5237 78.7769 48.8941 78.7769 49.4497H82.481V49.2645V49.2645ZM85.2591 52.5982V46.8569H85.9999V47.9681C86.3703 47.2273 87.2964 46.6717 88.2224 46.6717V47.5977C88.0372 47.5977 87.6668 47.5977 87.4816 47.7829C86.7407 47.9681 86.1851 48.5237 85.9999 49.0793V52.5982H85.2591V52.5982ZM90.8153 52.5982H89.8892V46.8569H90.8153V47.7829C91.3709 47.0421 92.1117 46.8569 93.0377 46.8569C94.5194 46.8569 95.2602 47.7829 95.2602 49.2645V52.7834H94.3341V49.4497C94.3341 47.9681 93.4081 47.7829 92.6673 47.7829C92.2969 47.7829 91.9265 47.9681 91.5561 48.1533C91.1857 48.3385 91.0005 48.7089 90.8153 48.8941V52.5982V52.5982ZM97.4826 52.2278C97.1122 51.8574 96.927 51.487 96.927 50.9314C96.927 50.3757 97.1122 49.8201 97.6678 49.6349C98.0382 49.2645 98.5939 49.0793 99.3347 49.0793C100.075 49.0793 100.816 49.2645 101.372 49.6349V49.0793C101.372 48.1533 100.816 47.5977 99.5199 47.5977C98.7791 47.5977 98.2235 47.7829 97.6678 48.1533V47.4125C98.2235 47.0421 98.9643 46.8569 99.7051 46.8569C101.187 46.8569 102.298 47.5977 102.298 48.8941V51.3018C102.298 51.6722 102.483 52.0426 102.854 52.0426H103.224V52.7834C103.039 52.7834 102.854 52.9686 102.668 52.9686C102.113 52.9686 101.742 52.5982 101.557 52.0426C101.002 52.7834 100.261 52.9686 99.3347 52.9686C98.4087 52.7834 98.0382 52.5982 97.4826 52.2278V52.2278ZM101.187 51.1166V50.3758C100.631 50.0053 100.075 49.8201 99.3347 49.8201C98.2234 49.8201 97.6678 50.1905 97.6678 50.9314C97.6678 51.6722 98.4087 52.0426 99.1495 52.0426C100.075 52.0426 100.816 51.487 101.187 51.1166V51.1166ZM105.446 50.9314V47.5977H104.15V46.8569H105.446V45.19H106.372V46.8569H108.225V47.5977H106.187V50.561C106.187 50.9314 106.187 51.3018 106.372 51.487C106.558 51.6722 106.743 51.6722 107.113 51.6722C107.484 51.6722 107.854 51.6722 108.039 51.487V52.2278C107.854 52.413 107.484 52.413 106.928 52.413C105.817 52.7834 105.446 52.0426 105.446 50.9314ZM110.262 44.6344C110.447 44.4492 110.817 44.4492 111.188 44.6344C111.373 44.8196 111.373 45.19 111.188 45.5604C111.003 45.7456 110.632 45.7456 110.262 45.5604C110.077 45.19 110.077 44.8196 110.262 44.6344ZM110.262 52.5982V46.8569H111.188V52.5982H110.262ZM116.188 46.8569C117.114 46.8569 117.855 47.2273 118.411 47.7829C118.966 48.3385 119.337 49.0793 119.337 49.8201C119.337 50.561 118.966 51.3018 118.411 51.8574C117.855 52.413 117.114 52.7834 116.188 52.7834C115.262 52.7834 114.521 52.413 113.966 51.8574C113.41 51.3018 113.04 50.561 113.04 49.8201C113.04 49.0793 113.41 48.3385 113.966 47.7829C114.521 47.0421 115.262 46.8569 116.188 46.8569ZM117.855 48.1533C117.485 47.7829 116.929 47.5977 116.374 47.5977C115.818 47.5977 115.262 47.7829 114.892 48.1533C114.521 48.5237 114.336 49.0793 114.336 49.8201C114.336 50.3757 114.521 50.9314 114.892 51.3018C115.262 51.6722 115.818 51.8574 116.374 51.8574C116.929 51.8574 117.485 51.6722 117.855 51.3018C118.226 50.9314 118.411 50.3757 118.411 49.8201C118.411 49.0793 118.226 48.7089 117.855 48.1533ZM122.115 52.5982H121.189V46.8569H122.115V47.7829C122.671 47.0421 123.411 46.8569 124.337 46.8569C125.819 46.8569 126.56 47.7829 126.56 49.2645V52.7834H125.634V49.4497C125.634 47.9681 124.708 47.7829 123.967 47.7829C123.597 47.7829 123.226 47.9681 122.856 48.1533C122.485 48.3385 122.3 48.7089 122.115 48.8941V52.5982V52.5982ZM128.782 52.2278C128.412 51.8574 128.227 51.487 128.227 50.9314C128.227 50.3757 128.412 49.8201 128.967 49.6349C129.338 49.2645 129.893 49.0793 130.634 49.0793C131.375 49.0793 132.116 49.2645 132.672 49.6349V49.0793C132.672 48.1533 132.116 47.5977 130.82 47.5977C130.079 47.5977 129.523 47.7829 128.967 48.1533V47.4125C129.523 47.0421 130.264 46.8569 131.005 46.8569C132.486 46.8569 133.598 47.5977 133.598 48.8941V51.3018C133.598 51.6722 133.783 52.0426 134.153 52.0426H134.524V52.7834C134.338 52.7834 134.153 52.9686 133.968 52.9686C133.412 52.9686 133.042 52.5982 132.857 52.0426C132.301 52.7834 131.56 52.9686 130.634 52.9686C129.708 52.7834 129.338 52.5982 128.782 52.2278V52.2278ZM132.486 51.1166V50.3758C131.931 50.0053 131.375 49.8201 130.634 49.8201C129.523 49.8201 128.967 50.1905 128.967 50.9314C128.967 51.6722 129.708 52.0426 130.449 52.0426C131.375 52.0426 132.116 51.487 132.486 51.1166V51.1166ZM136.005 51.3018V44.4492H136.931V51.1166C136.931 51.6722 137.116 51.8574 137.672 51.8574C137.857 51.8574 138.043 51.8574 138.228 51.6722V52.413C138.043 52.5982 137.672 52.5982 137.487 52.5982C136.561 52.7834 136.005 52.413 136.005 51.3018V51.3018ZM212.726 32.9665C209.208 32.9665 206.429 30.1884 206.429 26.6695C206.429 23.1506 209.208 20.3725 212.726 20.3725C216.245 20.3725 219.023 23.1506 219.023 26.6695C219.209 30.0032 216.245 32.9665 212.726 32.9665ZM258.148 23.9377L257.778 23.5673L235.923 1.52794C233.886 -0.509314 230.552 -0.509314 228.33 1.52794C226.293 3.5652 226.293 6.89888 228.33 9.12134L241.48 22.2709L246.85 27.6418L241.48 33.0128L228.515 45.9771C227.404 47.0884 227.033 48.3848 227.033 49.6812C227.033 50.9777 227.589 52.4593 228.515 53.3853C230.552 55.4226 233.886 55.4226 236.109 53.3853L258.148 31.3459L258.333 31.1607L258.518 30.9755C259.444 30.0495 260 28.7531 260 27.2714C259.63 26.1602 259.074 24.8638 258.148 23.9377V23.9377Z" fill="currentColor"/>
    </symbol>
</svg>