<svg width="128" height="128" viewBox="0 0 133 133" fill="none" xmlns="http://www.w3.org/2000/svg"><circle cx="66.5" cy="66.5" r="66.5" fill="#fff"/><path d="M79.54 64l-15.357-9.466a3.508 3.508 0 00-3.593-.076 3.508 3.508 0 00-1.819 3.1v18.845c0 1.973 1.59 3.586 3.543 3.597h.016c.61 0 1.247-.191 1.841-.554a1.014 1.014 0 10-1.056-1.73c-.278.169-.55.256-.79.256-.737-.004-1.526-.635-1.526-1.569V57.558c0-.56.292-1.057.78-1.33a1.505 1.505 0 011.54.032l15.357 9.466c.462.284.726.758.725 1.3a1.495 1.495 0 01-.731 1.298l-11.103 6.798a1.014 1.014 0 001.059 1.73l11.101-6.798a3.526 3.526 0 001.701-3.024A3.527 3.527 0 0079.54 64z" fill="#009840"/></svg>