<svg width="128" height="128" viewBox="0 0 133 133" fill="none" xmlns="http://www.w3.org/2000/svg"><circle cx="66.5" cy="66.5" r="66.5" fill="#fff"/><path d="M52.34 70v-6.108L57.116 70h1.116v-8.4h-1.296v6.084l-4.74-6.084h-1.152V70h1.296zm14.117 0v-1.212h-4.812v-2.664h3.792v-1.212h-3.792v-2.1h4.656V61.6h-5.976V70h6.132zm2.252 0l2.556-3.492L73.809 70h1.572l-3.336-4.572 2.808-3.828h-1.536l-2.028 2.784L69.26 61.6H67.7l2.796 3.852L67.173 70h1.536zm7.023-7.188h2.772V70h1.32v-7.188h2.784V61.6h-6.876v1.212z" fill="#009840"/><path d="M93 58l8 7.5-8 7.5M40 73l-8-7.5 8-7.5" stroke="#009840" stroke-width="2" stroke-linecap="round" stroke-linejoin="round"/></svg>