<svg class="logo" width="253" height="60" viewBox="0 0 253 60" fill="none"
    xmlns="http://www.w3.org/2000/svg">
    <path d="M251.573 19.8455L251.288 19.5786L231.793 1.30127C229.942 -0.433757 226.956 -0.433757 225.106 1.30127C223.255 3.0363 223.255 5.83542 225.106 7.57405L236.775 18.5109L241.473 22.9152L236.775 27.3195L225.248 38.1228C224.398 38.9236 223.828 40.1247 223.828 41.3259C223.828 42.5271 224.255 43.5912 225.248 44.392C227.099 46.127 230.088 46.127 231.939 44.392L251.434 25.9848C251.434 25.9848 251.576 25.9848 251.576 25.8513L251.719 25.7179C252.569 24.9171 253 23.8494 253 22.6482C252.854 21.714 252.427 20.6463 251.573 19.8455Z" fill="currentColor"/>
    <path d="M226.032 23.6337C226.536 20.7253 224.429 17.9849 221.327 17.5129C218.225 17.0409 215.302 19.016 214.798 21.9244C214.295 24.8328 216.401 27.5731 219.504 28.0451C222.606 28.5172 225.529 26.5421 226.032 23.6337Z" fill="currentColor"/>
    <path d="M37.4246 13.8432C34.7198 13.8432 32.7268 14.6404 31.3071 16.3791V14.2436H26.0399V38.6567H31.3071V29.5847C32.7268 31.1827 34.7198 32.1205 37.4246 32.1205C39.9832 32.1205 41.9762 31.1863 43.6845 29.4513C45.3928 27.7162 46.2431 25.451 46.2431 22.9152C46.2431 20.2495 45.3928 18.1141 43.6845 16.3791C41.9762 14.5106 39.8408 13.7098 37.4246 13.8432ZM39.5561 26.3852C38.702 27.3195 37.4208 27.7162 35.9972 27.7162C33.8618 27.7162 32.1535 26.6485 31.3032 25.1804V20.6463C32.1535 19.1782 33.8618 17.977 35.9972 18.1105C37.4208 18.1105 38.5596 18.5109 39.5561 19.4451C40.5526 20.3794 40.9797 21.5769 40.9797 22.9116C40.9797 24.2498 40.5526 25.4474 39.5561 26.3852Z" fill="currentColor"/>
    <path d="M66.3078 26.5151V20.6463C66.3078 18.5145 65.596 16.7794 63.8877 15.5783C62.3218 14.2472 60.1903 13.7134 57.4855 13.7134C54.6422 13.7134 52.3645 14.1138 50.5138 15.048V19.1818C52.3645 18.2475 54.2113 17.7137 56.2043 17.7137C59.4746 17.7137 61.1829 18.7814 61.1829 21.0503V21.5841C59.617 20.9168 57.9087 20.5164 55.7772 20.5164C53.7842 20.5164 52.0797 21.0503 50.6562 21.9845C49.2326 22.9188 48.5208 24.3869 48.5208 26.2517C48.5208 29.8553 51.3641 32.1205 55.3501 32.1205C58.0549 32.1205 60.0441 31.3198 61.7524 29.7218C62.4641 31.1899 63.8877 31.9907 66.0231 31.9907C67.3005 31.9907 68.1584 31.7237 68.8664 31.1899V27.5864C68.5817 27.7198 68.1546 27.8533 67.5852 27.8533C66.7387 27.8497 66.3078 27.4529 66.3078 26.5151ZM61.1868 26.3852C60.1903 27.5864 58.7667 28.1202 56.9199 28.1202C55.0693 28.1202 53.6457 27.4529 53.6457 25.8513C53.6457 24.3832 55.0693 23.5825 57.3431 23.5825C58.7667 23.5825 60.0479 23.9829 61.1868 24.6466V26.3852Z" fill="currentColor"/>
    <path d="M81.5324 31.8536C83.6677 31.8536 85.6607 31.4532 87.369 30.519V26.3816C85.9454 27.1824 84.2372 27.5828 82.3865 27.5828C80.8206 27.5828 79.397 27.1824 78.2581 26.2481C77.1193 25.4474 76.5537 24.2462 76.5537 22.7817C76.5537 21.3136 77.1193 20.2459 78.2581 19.3116C79.397 18.3774 80.6782 17.977 82.3865 17.977C83.8101 17.977 85.5145 18.3774 87.0843 19.0447V14.911C85.376 14.1102 83.5254 13.7098 81.5324 13.7098C78.6891 13.7098 76.2651 14.5106 74.276 16.2456C72.2868 17.977 71.2865 20.2459 71.2865 22.9152C71.2865 25.5844 72.283 27.8497 74.276 29.5847C76.269 31.1863 78.5467 32.1205 81.5324 31.8536Z" fill="currentColor"/>
    <path d="M116.679 29.4513C118.53 31.1863 121.088 32.1205 124.078 32.1205C127.067 32.1205 129.484 31.1863 131.477 29.4513C133.327 27.7162 134.32 25.5844 134.32 22.9152C134.32 20.3793 133.466 18.1141 131.477 16.379C129.626 14.644 127.064 13.7134 124.078 13.7134C121.088 13.7134 118.672 14.644 116.679 16.379C114.829 18.1141 113.836 20.2495 113.836 22.9152C113.836 25.4474 114.686 27.7162 116.679 29.4513ZM120.381 19.4451C121.377 18.5109 122.658 18.1105 124.082 18.1105C125.648 18.1105 126.783 18.5109 127.779 19.4451C128.776 20.3793 129.203 21.5805 129.203 22.9115C129.203 24.2462 128.776 25.4474 127.779 26.3816C126.783 27.3158 125.505 27.7126 124.082 27.7126C122.658 27.7126 121.377 27.3122 120.381 26.3816C119.384 25.4474 118.957 24.3796 118.957 22.9115C118.957 21.4434 119.384 20.3793 120.381 19.4451Z" fill="currentColor"/>
    <path d="M156.52 14.2436H140.868L140.726 17.5802C140.584 22.1144 139.872 25.451 138.448 27.4529H136.028V35.991V36.1245H141.149V31.7202H154.527V36.1245H159.506V27.5864H156.516V14.2436H156.52ZM151.257 27.4493H143.716C144.851 24.9135 145.424 21.8475 145.424 18.2439H151.257V27.4493Z" fill="currentColor"/>
    <path d="M179.432 26.5151V20.6463C179.432 18.5145 178.72 16.7794 177.012 15.5783C175.446 14.2472 173.314 13.7134 170.61 13.7134C167.766 13.7134 165.489 14.1138 163.638 15.048V19.1818C165.489 18.2475 167.335 17.7137 169.328 17.7137C172.599 17.7137 174.307 18.7814 174.307 21.0503V21.5841C172.741 20.9168 171.033 20.5164 168.901 20.5164C166.908 20.5164 165.204 21.0503 163.78 21.9845C162.357 22.9188 161.645 24.3869 161.645 26.2517C161.645 29.8553 164.488 32.1205 168.474 32.1205C171.179 32.1205 173.168 31.3198 174.877 29.7218C175.588 31.1899 177.012 31.9907 179.147 31.9907C180.425 31.9907 181.283 31.7237 181.991 31.1899V27.5864C181.706 27.7198 181.279 27.8533 180.709 27.8533C179.859 27.8497 179.432 27.4529 179.432 26.5151ZM174.307 26.3852C173.311 27.5864 171.887 28.1202 170.04 28.1202C168.19 28.1202 166.766 27.4529 166.766 25.8513C166.766 24.3832 168.19 23.5825 170.463 23.5825C171.887 23.5825 173.168 23.9829 174.307 24.6466V26.3852Z" fill="currentColor"/>
    <path d="M196.934 13.8432C194.229 13.8432 192.236 14.6404 190.817 16.3791V14.2436H185.553V38.6567H190.817V29.5847C192.236 31.1827 194.229 32.1205 196.934 32.1205C199.497 32.1205 201.486 31.1863 203.194 29.4513C204.902 27.7162 205.753 25.451 205.753 22.9152C205.753 20.2495 204.902 18.1141 203.194 16.3791C201.628 14.5106 199.497 13.7098 196.934 13.8432ZM199.07 26.3852C198.212 27.3195 196.934 27.7162 195.511 27.7162C193.375 27.7162 191.667 26.6485 190.813 25.1804V20.6463C191.667 19.1782 193.375 17.977 195.511 18.1105C196.93 18.1105 198.069 18.5109 199.07 19.4451C200.062 20.3794 200.489 21.5769 200.489 22.9116C200.489 24.2498 200.062 25.4474 199.07 26.3852Z" fill="currentColor"/>
    <path d="M21.6306 7.04021H15.086L5.40574 16.646V7.04021H0V31.4532H5.40574V20.1124L16.6481 31.4532H23.4813L10.5306 18.2475L21.6306 7.04021Z" fill="currentColor"/>
    <path d="M97.0455 24.7836H104.729V31.5867H109.992V14.1102H104.729V20.6463H97.0455V14.1102H91.7783V31.5867H97.0455V24.7836Z" fill="currentColor"/>
    <path d="M87.9384 47.3282V45.4597H87.369V41.4594H83.9524L83.6677 43.7283C83.383 45.0629 83.1021 45.3298 82.6712 45.4633V47.3318H83.383V46.1306H87.2266V47.3318H87.9384V47.3282ZM86.6572 45.3262H83.6677C83.9524 45.0593 84.2371 44.6589 84.3795 43.7247L84.6642 41.8562H86.6572V45.3262Z" fill="currentColor"/>
    <path d="M92.7747 41.3223L91.0665 45.1928L89.362 41.3223H88.5079L90.6432 46.1234L90.3585 46.7907C90.2162 47.1911 89.9315 47.3246 89.6467 47.3246C89.5044 47.3246 89.3659 47.1911 89.2197 47.1911L89.0773 47.725C89.2197 47.8584 89.5044 47.8584 89.6467 47.8584C90.2162 47.8584 90.7894 47.5915 91.0703 46.9242L93.6327 41.3223H92.7747Z" fill="currentColor"/>
    <path d="M133.897 43.1908H132.046V41.4558H131.192V46.127H133.897C134.893 46.127 135.463 45.4597 135.463 44.6589C135.467 43.8581 134.893 43.1908 133.897 43.1908ZM133.897 45.4597H132.046V43.8617H133.897C134.466 43.8617 134.751 44.2621 134.751 44.6625C134.751 45.1928 134.466 45.4597 133.897 45.4597Z" fill="currentColor"/>
    <path d="M137.171 41.4558H136.459V46.127H137.171V41.4558Z" fill="currentColor"/>
    <path d="M139.73 45.0593V41.4558H139.022V46.127H139.591L142.296 42.5235V46.127H143.004V41.4558H142.296L139.73 45.0593Z" fill="currentColor"/>
    <path d="M141.157 40.3917C140.588 40.3917 140.018 40.1248 139.733 39.7244L139.306 39.9913C139.733 40.5251 140.445 40.7921 141.157 40.7921C141.869 40.7921 142.581 40.5251 143.008 39.9913L142.581 39.7244C142.296 40.1248 141.726 40.3917 141.157 40.3917Z" fill="currentColor"/>
    <path d="M82.248 53.3304C81.3939 53.3304 80.8244 53.5937 80.255 54.1312L80.6821 54.6651C81.1091 54.2647 81.6786 53.9977 82.248 53.9977C82.9598 53.9977 83.5292 54.2611 83.5292 54.9284V55.7328C83.1021 55.3324 82.5327 55.0655 81.8209 55.0655C80.9706 55.0655 80.1165 55.5957 80.1165 56.667C80.1165 57.7347 80.9706 58.265 81.8209 58.265C82.5327 58.265 83.1021 58.0017 83.5292 57.5977V58.1351H84.241V54.932C84.2372 53.7308 83.2407 53.3304 82.248 53.3304ZM83.5254 57.0638C83.2407 57.4642 82.6712 57.7311 82.1018 57.7311C81.39 57.7311 80.8206 57.1973 80.8206 56.6634C80.8206 55.9961 81.39 55.5921 82.1018 55.5921C82.6712 55.5921 83.2407 55.7292 83.5254 56.1296V57.0638Z" fill="currentColor"/>
    <path d="M87.5114 53.4639C86.5149 53.4639 86.0878 53.8643 85.6607 54.2611L86.0878 54.6615C86.3725 54.2611 86.7996 53.9941 87.369 53.9941C88.3655 53.9941 88.935 54.5244 89.0735 55.4622H86.5149V56.1296H89.0735C88.9311 57.0638 88.3617 57.7311 87.369 57.7311C86.7996 57.7311 86.3725 57.4642 86.0878 57.0638L85.6607 57.4642C86.0878 57.8646 86.6572 58.265 87.5114 58.265C89.0773 58.265 90.0738 57.1973 90.0738 55.8626C90.0738 54.5316 89.0735 53.4639 87.5114 53.4639Z" fill="currentColor"/>
    <path d="M94.056 53.334C93.3442 53.334 92.7748 53.5974 92.3515 54.1312V53.4639H91.6397V60H92.3515V57.4642C92.7786 57.9981 93.4904 58.2614 94.056 58.1315C95.4795 58.1315 96.3337 57.1973 96.3337 55.7328C96.3337 54.2647 95.3372 53.334 94.056 53.334ZM93.9136 57.5977C93.3442 57.5977 92.7748 57.1973 92.49 56.8005V54.6651C92.6324 54.2647 93.3442 53.8643 93.9136 53.8643C94.9101 53.8643 95.4795 54.6651 95.4795 55.7328C95.4795 56.8005 94.9101 57.5977 93.9136 57.5977Z" fill="currentColor"/>
    <path d="M100.031 53.334C98.6076 53.334 97.6111 54.3982 97.6111 55.7328C97.6111 57.0674 98.6076 58.265 100.031 58.1315C101.455 58.1315 102.451 57.0674 102.451 55.7328C102.451 54.3982 101.601 53.334 100.031 53.334ZM100.031 57.5977C98.8923 57.5977 98.3228 56.6634 98.3228 55.7328C98.3228 54.6651 98.8923 53.8643 100.031 53.8643C101.17 53.8643 101.739 54.7985 101.739 55.7328C101.739 56.8005 101.17 57.5977 100.031 57.5977Z" fill="currentColor"/>
    <path d="M65.1689 44.9258L63.6069 41.4558H62.6104V46.127H63.3221V42.3936L65.0304 46.127H65.3151L66.8772 42.3936V46.127H67.7314V41.4558H66.7387L65.1689 44.9258Z" fill="currentColor"/>
    <path d="M71.5712 41.3259C70.1476 41.3259 69.1511 42.39 69.1511 43.7247C69.1511 45.1928 70.29 46.127 71.8559 46.2605C72.7101 46.2605 73.4218 45.9972 73.8489 45.5932L73.4218 45.0593C72.9948 45.3262 72.4253 45.5932 71.8559 45.5932C70.7171 45.5932 70.0053 44.9258 70.0053 43.9952H73.9874V43.8617C73.9913 42.39 73.141 41.3259 71.5712 41.3259ZM73.141 43.4577H69.8668C70.0091 42.6606 70.4362 41.8598 71.575 41.8598C72.7139 41.8598 73.2833 42.7904 73.141 43.4577Z" fill="currentColor"/>
    <path d="M81.9594 46.127L79.6856 43.5912L81.9594 41.4558H80.9668L78.8314 43.4613V41.4558H78.1196V43.5912L75.9843 41.4558H74.9878L77.2655 43.5912L74.9878 46.127H76.1266L77.9773 43.9952L78.262 44.2585V45.9935H78.9738V44.2585L79.2585 43.9952L81.1053 46.127H81.9594Z" fill="currentColor"/>
    <path d="M98.8923 46.127V41.4558H98.1843V43.4613H95.6219V41.4558H94.9101V46.127H95.6219V43.9952H98.1843V46.127H98.8923Z" fill="currentColor"/>
    <path d="M104.725 46.127V42.9239C104.725 41.7227 103.729 41.3259 102.736 41.3259C101.882 41.3259 101.312 41.5892 100.747 42.1267L101.174 42.6606C101.601 42.2602 102.17 41.9932 102.74 41.9932C103.452 41.9932 104.021 42.2566 104.021 42.9239V43.7283C103.594 43.3279 103.024 43.061 102.317 43.061C101.462 43.061 100.608 43.5912 100.608 44.6625C100.608 45.7302 101.462 46.2605 102.317 46.2605C103.028 46.2605 103.598 45.9972 104.021 45.5932V46.1306H104.725V46.127ZM102.594 45.7266C101.882 45.7266 101.312 45.1928 101.312 44.6589C101.312 43.9916 101.882 43.5876 102.594 43.5876C103.163 43.5876 103.732 43.7247 104.017 44.1251V45.0593C103.732 45.4597 103.163 45.7266 102.594 45.7266Z" fill="currentColor"/>
    <path d="M111.42 43.5912C111.42 42.1231 110.423 41.1925 109.142 41.1925C108.43 41.1925 107.861 41.4594 107.434 41.9932V41.3259H106.722V47.862H107.434V45.3262C107.861 45.8601 108.43 46.127 109.142 46.127C110.566 46.127 111.42 45.0593 111.42 43.5912ZM108.996 45.5895C108.426 45.5895 107.861 45.1892 107.572 44.7924V42.6606C107.715 42.2566 108.426 41.8562 108.996 41.8562C109.992 41.8562 110.562 42.6606 110.562 43.7247C110.566 44.7924 109.996 45.5895 108.996 45.5895Z" fill="currentColor"/>
    <path d="M117.391 43.7247C117.391 42.39 116.541 41.3259 114.975 41.3259C113.551 41.3259 112.555 42.39 112.555 43.7247C112.555 45.0593 113.551 46.1234 114.975 46.2569C116.395 46.2569 117.391 45.0593 117.391 43.7247ZM115.117 45.5932C113.978 45.5932 113.409 44.6589 113.409 43.7283C113.409 42.6606 113.978 41.8598 115.117 41.8598C116.256 41.8598 116.822 42.794 116.822 43.7283C116.822 44.6625 116.11 45.5932 115.117 45.5932Z" fill="currentColor"/>
    <path d="M123.797 47.3282V45.4597H123.228V41.4594H119.811L119.526 43.7283C119.242 45.0629 118.957 45.3298 118.53 45.4633V47.3318H119.242V46.1306H123.085V47.3318H123.797V47.3282ZM122.512 45.3262H119.523C119.807 45.0593 120.096 44.6589 120.234 43.7247L120.519 41.8562H122.508V45.3262H122.512Z" fill="currentColor"/>
    <path d="M128.633 43.4613H126.071V41.4558H125.359V46.127H126.071V43.9952H128.633V46.127H129.345V41.4558H128.633V43.4613Z" fill="currentColor"/>
    <path d="M104.302 58.1351H105.014V54.1312H107.572V58.1351H108.426V53.4639H104.302V58.1351Z" fill="currentColor"/>
    <path d="M112.27 53.334C110.846 53.334 109.85 54.3982 109.85 55.7328C109.85 57.0674 110.846 58.265 112.27 58.1315C113.694 58.1315 114.69 57.0674 114.69 55.7328C114.69 54.3982 113.836 53.334 112.27 53.334ZM112.27 57.5977C111.131 57.5977 110.562 56.6634 110.562 55.7328C110.562 54.6651 111.131 53.8643 112.27 53.8643C113.409 53.8643 113.974 54.7985 113.974 55.7328C113.974 56.8005 113.409 57.5977 112.27 57.5977Z" fill="currentColor"/>
    <path d="M118.957 53.334C118.245 53.334 117.676 53.5974 117.253 54.1312V53.4639H116.541V60H117.253V57.4642C117.537 57.9981 118.249 58.2614 118.957 58.1315C120.381 58.1315 121.235 57.1973 121.235 55.7328C121.235 54.2647 120.238 53.334 118.957 53.334ZM118.676 57.5977C118.107 57.5977 117.537 57.1973 117.253 56.8005V54.6651C117.395 54.2647 118.107 53.8643 118.676 53.8643C119.673 53.8643 120.242 54.6651 120.242 55.7328C120.238 56.8005 119.669 57.5977 118.676 57.5977Z" fill="currentColor"/>
    <path d="M122.231 54.1312H123.655V58.1351H124.505V54.1312H125.929V53.4639H122.231V54.1312Z" fill="currentColor"/>
</svg>
